#!OML:ASF E:\emotionWalksFemale\Project 1\Capture day 1\Session 1\Female1.ASF
:FULLY-SPECIFIED
:DEGREES
142
root 8.58309 14.3916 22.1017 189.801 0.402496 -178.163
lowerback 14.9551 1.15323 1.98033
upperback -2.82744 1.93683 0.0785164
thorax -11.4688 0.786421 -1.51124
lowerneck -7.136 -2.44629 -6.90872
upperneck -3.3198 -3.01128 8.13232
head 0.445705 -1.50256 3.80355
rclavicle 2.04904e-014 -5.66536e-015
rhumerus -49.5435 9.46968 -89.4652
rradius 31.4423
rwrist 30.0979
rhand -17.1447 -60.4322
rfingers 7.12502
rthumb 9.09576 90.2161
lclavicle 2.04904e-014 -5.66536e-015
lhumerus -50.2797 1.78374 76.597
lradius 31.5597
lwrist -9.55483
lhand -9.60609 -42.6096
lfingers 7.12502
lthumb 16.3629 -13.2799
rfemur -29.0266 7.5572 25.4794
rtibia 53.4397
rfoot -32.0695 -21.436
rtoes -0.482008
lfemur -32.1976 -3.78324 -20.8191
ltibia 56.2965
lfoot -37.6365 6.34867
ltoes -26.6906
143
root 8.58473 14.3873 22.0794 189.991 0.422305 -178.193
lowerback 15.1997 1.11174 1.95611
upperback -2.94182 1.88273 0.0672085
thorax -11.7451 0.756 -1.50578
lowerneck -7.2127 -2.44179 -6.96572
upperneck -3.36498 -3.00023 8.14624
head 0.445009 -1.49745 3.81963
rclavicle 5.35787e-016 -2.23633e-016
rhumerus -49.9906 9.34681 -89.297
rradius 31.5287
rwrist 30.7568
rhand -17.6204 -60.3567
rfingers 7.12502
rthumb 8.63663 90.16
lclavicle 5.35787e-016 -2.23633e-016
lhumerus -51.0565 1.32761 76.5909
lradius 31.932
lwrist -8.97581
lhand -9.29976 -42.389
lfingers 7.12502
lthumb 16.6579 -13.0838
rfemur -29.2196 7.47914 25.4489
rtibia 53.5933
rfoot -32.0231 -21.5367
rtoes -1.74095
lfemur -32.3538 -3.85417 -20.8472
ltibia 56.426
lfoot -37.6764 6.47824
ltoes -26.8391
144
root 8.58901 14.3792 22.0623 190.182 0.427047 -178.211
lowerback 15.3564 1.05865 1.87167
upperback -2.99019 1.80004 0.073428
thorax -11.8985 0.720027 -1.43576
lowerneck -7.40399 -2.41414 -6.98238
upperneck -3.33731 -2.95937 8.17804
head 0.485365 -1.47573 3.83401
rclavicle -8.12765e-015 -5.8393e-015
rhumerus -50.3813 9.39949 -89.2937
rradius 31.6344
rwrist 30.9521
rhand -18.0512 -60.2453
rfingers 7.12502
rthumb 8.22097 90.0653
lclavicle -8.12765e-015 -5.8393e-015
lhumerus -51.6664 1.16926 76.4239
lradius 32.0864
lwrist -8.94006
lhand -8.92873 -42.4282
lfingers 7.12502
lthumb 17.015 -13.1534
rfemur -29.4345 7.42456 25.4381
rtibia 53.7561
rfoot -31.9204 -21.6314
rtoes -2.83693
lfemur -32.5607 -3.94019 -20.8483
ltibia 56.5851
lfoot -37.6372 6.55237
ltoes -26.7992
145
root 8.59431 14.371 22.048 190.486 0.354991 -178.218
lowerback 15.3707 1.01886 1.81646
upperback -3.0272 1.73562 0.066037
thorax -11.9527 0.692028 -1.39739
lowerneck -7.47845 -2.36396 -6.94988
upperneck -3.54865 -2.8988 8.22276
head 0.424952 -1.45259 3.84577
rclavicle -6.06449e-016 -5.39203e-015
rhumerus -50.8116 9.51588 -89.4372
rradius 31.7885
rwrist 30.568
rhand -17.6561 -60.056
rfingers 7.12502
rthumb 8.60224 -89.8607
lclavicle -6.06449e-016 -5.39203e-015
lhumerus -52.0237 1.11029 76.158
lradius 31.9146
lwrist -9.31237
lhand -9.2123 -42.7672
lfingers 7.12502
lthumb 16.7421 -13.4691
rfemur -29.7831 7.31871 25.4469
rtibia 53.912
rfoot -31.8839 -21.6912
rtoes -3.10111
lfemur -32.9174 -4.06541 -20.8019
ltibia 56.7468
lfoot -37.6194 6.46733
ltoes -25.9222
146
root 8.59754 14.366 22.0305 190.782 0.362789 -178.173
lowerback 15.3565 1.03687 1.82922
upperback -3.03275 1.7622 0.0669064
thorax -11.9493 0.703733 -1.41006
lowerneck -7.49773 -2.35818 -6.9385
upperneck -3.84221 -2.89706 8.23125
head 0.3325 -1.46122 3.84761
rclavicle 3.0369e-014 -1.94747e-015
rhumerus -51.1486 9.6115 -89.5583
rradius 31.9261
rwrist 29.9952
rhand -15.5847 -60.2464
rfingers 7.12502
rthumb 10.6007 -89.9591
lclavicle 3.0369e-014 -1.94747e-015
lhumerus -52.3283 0.933084 76.045
lradius 31.7846
lwrist -9.57644
lhand -9.51579 -42.6811
lfingers 7.12502
lthumb 16.4499 -13.3585
rfemur -30.1062 7.26439 25.4945
rtibia 54.0346
rfoot -31.8754 -21.6998
rtoes -3.45331
lfemur -33.2329 -4.09186 -20.7228
ltibia 56.8825
lfoot -37.6462 6.6176
ltoes -25.8907
147
root 8.59784 14.3662 22.005 190.991 0.477475 -178.151
lowerback 15.3868 1.10299 1.85984
upperback -2.95139 1.85762 0.0760386
thorax -11.8709 0.74884 -1.44086
lowerneck -7.77982 -2.4424 -7.14628
upperneck -4.08013 -2.99383 8.37691
head 0.319683 -1.51373 3.93568
rclavicle 3.43835e-015 3.70236e-015
rhumerus -51.262 9.57679 -89.453
rradius 31.9491
rwrist 29.6295
rhand -14.0124 -60.375
rfingers 7.12502
rthumb 12.1172 90.0041
lclavicle 3.43835e-015 3.70236e-015
lhumerus -52.4896 0.815367 76.0518
lradius 31.6747
lwrist -9.71117
lhand -9.4348 -42.5275
lfingers 7.12502
lthumb 16.5279 -13.2114
rfemur -30.2841 7.29801 25.4818
rtibia 54.1229
rfoot -31.8495 -21.6624
rtoes -4.22919
lfemur -33.3729 -4.084 -20.7145
ltibia 56.976
lfoot -37.7306 7.0885
ltoes -27.1099
148
root 8.59708 14.3674 21.9768 191.153 0.48433 -178.141
lowerback 15.3581 1.09276 1.91432
upperback -2.85533 1.85203 0.0685292
thorax -11.7432 0.745076 -1.47611
lowerneck -7.85354 -2.44497 -7.30789
upperneck -4.45172 -2.99471 8.621
head 0.219776 -1.52515 4.05622
rclavicle -5.23829e-015 -3.60297e-015
rhumerus -51.3871 9.44292 -89.3838
rradius 31.8252
rwrist 29.4577
rhand -13.9697 -59.8546
rfingers 7.12502
rthumb 12.1584 -89.4813
lclavicle -5.23829e-015 -3.60297e-015
lhumerus -52.6687 0.814534 75.9397
lradius 31.5314
lwrist -9.9834
lhand -9.16462 -42.5716
lfingers 7.12502
lthumb 16.788 -13.2774
rfemur -30.4134 7.22447 25.4614
rtibia 54.2215
rfoot -31.912 -21.5329
rtoes -4.63286
lfemur -33.4577 -4.21396 -20.6979
ltibia 57.0473
lfoot -37.7877 7.21921
ltoes -26.8578
